<svg xmlns="http://www.w3.org/2000/svg" width="680" height="400" viewBox="0 0 680 400" font-family="'Noto Sans CJK TC','Microsoft JhengHei',sans-serif">
<rect width="680" height="400" fill="#ffffff"/>
<defs><marker id="a" viewBox="0 0 10 10" refX="8" refY="5" markerWidth="6" markerHeight="6" orient="auto-start-reverse"><path d="M2 1L8 5L2 9" fill="none" stroke="#555" stroke-width="1.5" stroke-linecap="round" stroke-linejoin="round"/></marker></defs>
<text x="185" y="40" text-anchor="middle" font-size="18" font-weight="700" fill="#1a1a2e">人:資訊繭房</text>
<text x="495" y="40" text-anchor="middle" font-size="18" font-weight="700" fill="#1a1a2e">AI Agent:繭化</text>
<rect x="70" y="80" width="230" height="52" rx="8" fill="#efeafb" stroke="#7c5cbf" stroke-width="1"/><text x="185.0" y="101" text-anchor="middle" font-size="15" font-weight="600" fill="#3d2b6b">演算法餵養</text><text x="185.0" y="119" text-anchor="middle" font-size="11.5" fill="#444">依偏好推薦內容</text>
<rect x="70" y="155" width="230" height="52" rx="8" fill="#efeafb" stroke="#7c5cbf" stroke-width="1"/><text x="185.0" y="176" text-anchor="middle" font-size="15" font-weight="600" fill="#3d2b6b">偏好強化</text><text x="185.0" y="194" text-anchor="middle" font-size="11.5" fill="#444">只看見認同的觀點</text>
<rect x="70" y="230" width="230" height="52" rx="8" fill="#efeafb" stroke="#7c5cbf" stroke-width="1"/><text x="185.0" y="251" text-anchor="middle" font-size="15" font-weight="600" fill="#3d2b6b">視野收窄</text><text x="185.0" y="269" text-anchor="middle" font-size="11.5" fill="#444">反對意見不再出現</text>
<rect x="70" y="305" width="230" height="52" rx="8" fill="#efeafb" stroke="#7c5cbf" stroke-width="1"/><text x="185.0" y="326" text-anchor="middle" font-size="15" font-weight="600" fill="#3d2b6b">訊號回饋</text><text x="185.0" y="344" text-anchor="middle" font-size="11.5" fill="#444">行為再餵給演算法</text>
<rect x="380" y="80" width="230" height="52" rx="8" fill="#fdeae6" stroke="#d0563b" stroke-width="1"/><text x="495.0" y="101" text-anchor="middle" font-size="15" font-weight="600" fill="#7a2a18">企業資料餵養</text><text x="495.0" y="119" text-anchor="middle" font-size="11.5" fill="#444">知識庫有偏、過時、缺漏</text>
<rect x="380" y="155" width="230" height="52" rx="8" fill="#fdeae6" stroke="#d0563b" stroke-width="1"/><text x="495.0" y="176" text-anchor="middle" font-size="15" font-weight="600" fill="#7a2a18">判斷偏向</text><text x="495.0" y="194" text-anchor="middle" font-size="11.5" fill="#444">世界觀跟著資料歪</text>
<rect x="380" y="230" width="230" height="52" rx="8" fill="#fdeae6" stroke="#d0563b" stroke-width="1"/><text x="495.0" y="251" text-anchor="middle" font-size="15" font-weight="600" fill="#7a2a18">輸出偏向</text><text x="495.0" y="269" text-anchor="middle" font-size="11.5" fill="#444">有自信地給出偏答案</text>
<rect x="380" y="305" width="230" height="52" rx="8" fill="#fdeae6" stroke="#d0563b" stroke-width="1"/><text x="495.0" y="326" text-anchor="middle" font-size="15" font-weight="600" fill="#7a2a18">自我餵食</text><text x="495.0" y="344" text-anchor="middle" font-size="11.5" fill="#444">輸出成為下輪的輸入</text>
<line x1="185" y1="132" x2="185" y2="153" stroke="#555" stroke-width="1.5" marker-end="url(#a)"/>
<line x1="185" y1="207" x2="185" y2="228" stroke="#555" stroke-width="1.5" marker-end="url(#a)"/>
<line x1="185" y1="282" x2="185" y2="303" stroke="#555" stroke-width="1.5" marker-end="url(#a)"/>
<line x1="495" y1="132" x2="495" y2="153" stroke="#555" stroke-width="1.5" marker-end="url(#a)"/>
<line x1="495" y1="207" x2="495" y2="228" stroke="#555" stroke-width="1.5" marker-end="url(#a)"/>
<line x1="495" y1="282" x2="495" y2="303" stroke="#555" stroke-width="1.5" marker-end="url(#a)"/>
<path d="M70 331 L45 331 L45 106 L66 106" fill="none" stroke="#555" stroke-width="1.5" marker-end="url(#a)"/>
<path d="M610 331 L635 331 L635 106 L614 106" fill="none" stroke="#555" stroke-width="1.5" marker-end="url(#a)"/></svg>
